# Blender v2.76 (sub 0) OBJ File: ''
# www.blender.org
mtllib LargeOakGreen.mtl
o Mesh1_Large_Oak_Green_Model
v -0.275290 0.000000 0.275300
v -0.174810 0.971550 0.174810
v -0.174810 0.971550 -0.174810
v -0.275290 0.000000 -0.275290
v 0.275290 0.000000 0.275300
v 0.174810 0.971550 0.174810
v 0.275290 0.000000 -0.275290
v 0.174810 0.971550 -0.174810
v 0.588900 0.971550 -1.020000
v -0.588900 0.971550 -1.020000
v -0.588900 0.971550 1.020006
v -1.177800 0.971550 0.000000
v -0.755000 1.591550 1.307700
v -1.510000 1.591550 0.000000
v 0.588900 0.971550 1.020006
v 0.755000 1.591550 1.307700
v 1.177800 0.971550 0.000000
v 0.755000 1.591550 -1.307700
v 1.510000 1.591550 0.000000
v 0.581350 3.771550 -1.006929
v 1.162700 3.771550 0.000001
v -0.755000 1.591550 -1.307700
v -0.581350 3.771550 -1.006929
v -1.162700 3.771550 0.000001
v 0.000000 4.601550 0.000001
v -0.581350 3.771550 1.006930
v 0.581350 3.771550 1.006930
vt -0.606904 0.673868
vt -0.954045 1.058050
vt -0.765823 0.673868
vt -0.418682 1.058050
vt -0.418682 0.130770
vt -0.151000 0.594408
vt -0.439273 0.220447
vt 0.096091 0.220447
vt 0.171591 0.531128
vt -0.514773 0.531128
vt 0.343182 0.656225
vt 0.418682 0.345545
vt 0.954045 0.345545
vt 1.029550 0.656225
vt -0.606904 0.514949
vt -0.954045 0.130770
vt -0.765823 0.514949
vt -1.221730 0.594408
vt 0.514773 1.281710
vt -0.171591 1.281710
vt -0.096091 0.971033
vt 0.439273 0.971033
vt -0.171591 0.513544
vt 0.514773 0.513544
vt 0.435841 1.513840
vt -0.092659 1.513840
vt -0.343182 0.554164
vt -0.422114 1.554460
vt -0.950614 1.554460
vt -1.029550 0.554164
vt -0.593705 1.676320
vt -1.122200 1.676320
vt -1.201140 0.676023
vt -0.514773 0.676023
vt -0.593705 0.966577
vt -0.857955 1.559720
vt -1.122200 0.966577
vt 0.092659 1.425250
vt -0.171591 2.018390
vt -0.435841 1.425250
vt 0.950614 1.195910
vt 0.686364 1.789060
vt 0.422114 1.195910
vt 1.122200 0.507906
vt 0.857955 1.101050
vt 0.593705 0.507906
vt 0.435841 0.049236
vt 0.171591 0.642379
vt -0.092659 0.049236
vt -0.686364 0.871714
vt -0.950614 0.278571
vt -0.422114 0.278571
vt 0.514773 0.594783
vt 1.201140 0.594783
vt 1.122200 1.595080
vt 0.593705 1.595080
vt 1.201140 1.031520
vt 0.514773 1.031520
vt 0.590273 0.720838
vt 1.125640 0.720838
vt 1.029550 0.716643
vt 0.950614 1.716940
vt 0.422114 1.716940
vt 0.343182 0.716643
vt 0.092659 1.757560
vt -0.435841 1.757560
vt -0.514773 0.757263
vt 0.171591 0.757263
vt -1.125640 0.470642
vt -0.590273 0.470642
vt -0.514773 0.781323
vt -1.201140 0.781323
vt -1.029550 1.156620
vt -0.954045 0.845935
vt -0.418682 0.845935
vt -0.343182 1.156620
vt -0.469275 0.057737
vt -0.514949 0.501706
vt -0.673868 0.501706
vt -0.719542 0.057737
vt 0.811497 0.048277
vt 0.765823 0.492246
vt 0.606904 0.492246
vt 0.561230 0.048277
vt 0.469275 -0.083484
vt 0.719542 -0.083484
vt 0.673868 0.360486
vt 0.514949 0.360486
vt -0.561230 0.469275
vt -0.561230 0.719542
vt -0.811497 0.719542
vt -0.811497 0.469275
vt -0.561230 -0.074024
vt -0.606904 0.369946
vt -0.765823 0.369946
vt -0.811497 -0.074024
vn -0.000000 -1.000000 -0.000000
vn -0.785600 -0.420900 0.453500
vn 0.000000 -0.420900 0.907100
vn 0.785600 -0.420900 -0.453600
vn 0.857900 0.136700 -0.495300
vn 0.000000 0.136700 -0.990600
vn -0.857900 0.136700 -0.495300
vn -0.550800 0.771600 -0.318000
vn -0.550800 0.771600 0.318000
vn 0.000000 0.771600 0.636100
vn 0.550800 0.771600 0.318000
vn 0.550800 0.771600 -0.318000
vn 0.000000 0.771600 -0.636100
vn 0.857900 0.136700 0.495300
vn 0.785600 -0.420900 0.453500
vn 0.000000 0.136700 0.990600
vn -0.857900 0.136700 0.495300
vn -0.785600 -0.420900 -0.453600
vn 0.000000 -0.420900 -0.907100
vn -0.994700 0.102900 0.000000
vn 0.000000 0.102900 0.994700
vn 0.994700 0.102900 0.000000
vn 0.000000 0.102900 -0.994700
usemtl Green_leafs
s 1
f 3/1/1 9/2/1 8/3/1
f 3/1/1 10/4/1 9/2/1
f 11/5/1 10/4/1 3/1/1
f 10/4/1 11/5/1 12/6/1
f 12/7/2 11/8/2 13/9/2 14/10/2
f 13/11/3 11/12/3 15/13/3 16/14/3
f 11/5/1 2/15/1 15/16/1
f 2/15/1 11/5/1 3/1/1
f 15/16/1 2/15/1 6/17/1
f 15/16/1 6/17/1 9/2/1
f 8/3/1 9/2/1 6/17/1
f 15/16/1 9/2/1 17/18/1
f 18/19/4 19/20/4 17/21/4 9/22/4
f 19/23/5 18/24/5 20/25/5 21/26/5
f 22/27/6 23/28/6 20/29/6 18/30/6
f 24/31/7 23/32/7 22/33/7 14/34/7
f 24/35/8 25/36/8 23/37/8
f 26/38/9 25/39/9 24/40/9
f 27/41/10 25/42/10 26/43/10
f 21/44/11 25/45/11 27/46/11
f 20/47/12 25/48/12 21/49/12
f 25/50/13 20/51/13 23/52/13
f 16/53/14 19/54/14 21/55/14 27/56/14
f 19/57/15 16/58/15 15/59/15 17/60/15
f 16/61/16 27/62/16 26/63/16 13/64/16
f 26/65/17 24/66/17 14/67/17 13/68/17
f 10/69/18 12/70/18 14/71/18 22/72/18
f 18/73/19 9/74/19 10/75/19 22/76/19
usemtl Wood
f 1/77/20 2/78/20 3/79/20 4/80/20
f 5/81/21 6/82/21 2/83/21 1/84/21
f 5/85/22 7/86/22 8/87/22 6/88/22
f 1/89/1 4/90/1 7/91/1 5/92/1
f 4/93/23 3/94/23 8/95/23 7/96/23
