# Blender v2.76 (sub 0) OBJ File: ''
# www.blender.org
mtllib OakGreen.mtl
o Mesh1_Oak_Green_Model
v 0.788090 1.533500 -0.455000
v 0.000003 1.533500 -0.910000
v 0.000003 2.817000 -0.909999
v 0.788090 2.817000 -0.455000
v 0.000003 1.270000 -0.509600
v 0.441330 1.270000 -0.254800
v -0.441323 1.270000 -0.254800
v -0.788080 1.533500 -0.455000
v -0.788080 1.533500 0.455000
v -0.441323 1.270000 0.254800
v -0.788080 2.817000 0.455001
v -0.788080 2.817000 -0.455000
v 0.000003 1.533500 0.910000
v 0.000003 2.817000 0.910001
v 0.000003 1.270000 0.509600
v 0.441330 1.270000 0.254800
v 0.788090 1.533500 0.455000
v 0.114259 1.270000 0.114256
v -0.114253 1.270000 0.114256
v -0.114253 1.270000 -0.114260
v 0.114259 1.270000 -0.114260
v 0.179934 0.000000 0.179930
v 0.179934 0.000000 -0.179930
v -0.179927 0.000000 0.179930
v -0.179927 0.000000 -0.179930
v 0.788090 2.817000 0.455001
v 0.457090 4.508500 -0.263899
v 0.457090 4.508500 0.263901
v 0.000003 4.508500 -0.527799
v -0.457085 4.508500 -0.263899
v -0.457085 4.508500 0.263901
v 0.000003 4.933500 0.000001
v 0.000003 4.508500 0.527801
vt 0.331850 -0.022723
vt 0.495423 -0.022723
vt 0.465571 0.555321
vt 0.361702 0.555321
vt -0.276433 0.331850
vt -0.276433 0.495423
vt -0.440006 0.495423
vt -0.440006 0.331850
vt -0.331850 0.014276
vt -0.361702 0.592320
vt -0.465571 0.592320
vt -0.495423 0.014276
vt 0.440006 0.017138
vt 0.410154 0.595182
vt 0.306285 0.595182
vt 0.276433 0.017138
vt -0.276433 -0.025585
vt -0.306285 0.552459
vt -0.410154 0.552459
vt -0.440006 -0.025585
vt -0.310227 0.697045
vt 0.103409 0.697045
vt 0.103409 1.280450
vt -0.310227 1.280450
vt 0.012409 0.936811
vt 0.103409 1.134770
vt -0.310227 1.134770
vt -0.219227 0.936811
vt -0.401227 0.651596
vt -0.310227 0.849557
vt -0.723864 0.849557
vt -0.632864 0.651596
vt -0.206818 0.421735
vt -0.620455 0.421735
vt -0.529455 0.223774
vt -0.297818 0.223774
vt -0.620455 0.697045
vt -0.206818 0.697045
vt -0.206818 1.280450
vt -0.620455 1.280450
vt -0.103409 0.697045
vt 0.310227 0.697045
vt 0.310227 1.280450
vt -0.103409 1.280450
vt 0.219227 0.081167
vt 0.310227 0.279128
vt -0.103409 0.279128
vt -0.012409 0.081167
vt 0.632864 0.366382
vt 0.723864 0.564342
vt 0.310227 0.564342
vt 0.401227 0.366382
vt 0.297818 0.794204
vt 0.529455 0.794204
vt 0.620455 0.992165
vt 0.206818 0.992165
vt -0.558823 0.297818
vt -0.410154 0.361702
vt -0.558823 0.529455
vt -0.358220 0.182000
vt -0.306285 0.361702
vt -0.157617 0.297818
vt -0.306285 0.465571
vt -0.358220 0.645273
vt -0.157617 0.529455
vt -0.410154 0.465571
vt 0.206818 0.697045
vt 0.620455 0.697045
vt 0.620455 1.280450
vt 0.206818 1.280450
vt 0.206818 1.119040
vt 0.620455 1.119040
vt 0.533591 1.902480
vt 0.293682 1.902480
vt 0.103409 1.084640
vt 0.016546 1.868090
vt -0.223364 1.868090
vt -0.310227 1.084640
vt -0.310227 1.153430
vt -0.397091 1.936880
vt -0.637000 1.936880
vt -0.723864 1.153430
vt -0.293682 2.040070
vt -0.533591 2.040070
vt -0.620455 1.256620
vt -0.206818 1.256620
vt -0.293682 1.505630
vt -0.413636 1.789330
vt -0.533591 1.505630
vt 0.223364 1.636800
vt 0.103409 1.920500
vt -0.016546 1.636800
vt 0.517045 1.658160
vt 0.397091 1.374460
vt 0.637000 1.374460
vt 0.723864 1.222230
vt 0.637000 2.005670
vt 0.397091 2.005670
vt 0.310227 1.222230
vt 0.310227 1.291020
vt 0.223364 2.074460
vt -0.016546 2.074460
vt -0.103409 1.291020
vt 0.723864 0.697045
vt 0.723864 1.280450
vt 0.533591 0.980952
vt 0.413636 1.264650
vt 0.293682 0.980952
vt 0.016546 0.849782
vt -0.103409 1.133480
vt -0.223364 0.849782
vt -0.397091 1.112120
vt -0.517045 1.395820
vt -0.637000 1.112120
vt -0.723864 0.697045
vt -0.723864 1.280450
vn 0.998700 0.051600 0.000000
vn 0.000000 -1.000000 -0.000000
vn -0.998700 0.051600 0.000000
vn 0.000000 0.051600 0.998700
vn 0.000000 0.051600 -0.998700
vn 0.500000 0.000000 -0.866000
vn 0.497700 0.096500 -0.862000
vn 0.302500 -0.796200 -0.524000
vn -0.302500 -0.796200 -0.524000
vn -0.605000 -0.796200 0.000000
vn -1.000000 0.000000 0.000000
vn -0.995300 0.096500 0.000000
vn -0.500000 -0.000000 0.866000
vn -0.497700 0.096500 0.862000
vn -0.302500 -0.796200 0.524000
vn 0.302500 -0.796200 0.524000
vn 0.605000 -0.796200 0.000000
vn 1.000000 0.000000 0.000000
vn 0.995300 0.096400 -0.000000
vn 0.981400 0.192000 0.000000
vn 0.490700 0.192000 -0.849900
vn -0.497700 0.096500 -0.862000
vn -0.490700 0.192000 -0.849900
vn -0.981400 0.192000 0.000000
vn -0.680900 0.732300 0.000000
vn -0.340500 0.732300 0.589700
vn 0.340500 0.732300 0.589700
vn 0.497700 0.096500 0.862000
vn 0.490700 0.192000 0.849900
vn -0.490700 0.192000 0.849900
vn 0.500000 -0.000000 0.866000
vn 0.680900 0.732300 0.000000
vn 0.340500 0.732300 -0.589700
vn -0.340500 0.732300 -0.589700
vn -0.500000 0.000000 -0.866000
usemtl Wood.002
s 1
f 22/1/1 23/2/1 21/3/1 18/4/1
f 24/5/2 25/6/2 23/7/2 22/8/2
f 24/9/3 19/10/3 20/11/3 25/12/3
f 22/13/4 18/14/4 19/15/4 24/16/4
f 25/17/5 20/18/5 21/19/5 23/20/5
usemtl Green_leafs
f 1/21/6 2/22/6 3/23/7 4/24/7
f 5/25/8 2/26/8 1/27/8 6/28/8
f 7/29/9 8/30/9 2/31/9 5/32/9
f 9/33/10 8/34/10 7/35/10 10/36/10
f 8/37/11 9/38/11 11/39/12 12/40/12
f 9/41/13 13/42/13 14/43/14 11/44/14
f 15/45/15 13/46/15 9/47/15 10/48/15
f 16/49/16 17/50/16 13/51/16 15/52/16
f 16/53/17 6/54/17 1/55/17 17/56/17
f 16/57/2 18/58/2 6/59/2
f 15/60/2 18/58/2 16/57/2
f 15/60/2 19/61/2 18/58/2
f 10/62/2 19/61/2 15/60/2
f 19/61/2 10/62/2 20/63/2
f 10/62/2 5/64/2 20/63/2
f 5/64/2 10/62/2 7/65/2
f 20/63/2 5/64/2 21/66/2
f 21/66/2 5/64/2 6/59/2
f 21/66/2 6/59/2 18/58/2
f 17/67/18 1/68/18 4/69/19 26/70/19
f 26/71/19 4/72/19 27/73/20 28/74/20
f 3/75/7 29/76/21 27/77/21 4/78/7
f 12/79/22 30/80/23 29/81/23 3/82/22
f 31/83/24 30/84/24 12/85/12 11/86/12
f 31/87/25 32/88/25 30/89/25
f 33/90/26 32/91/26 31/92/26
f 32/93/27 33/94/27 28/95/27
f 26/96/28 28/97/29 33/98/29 14/99/28
f 14/100/14 33/101/30 31/102/30 11/103/14
f 13/42/31 17/104/31 26/105/28 14/43/28
f 27/106/32 32/107/32 28/108/32
f 29/109/33 32/110/33 27/111/33
f 30/112/34 32/113/34 29/114/34
f 2/115/35 8/21/35 12/24/22 3/116/22
